<svg xmlns="http://www.w3.org/2000/svg" width="2500" height="2500" data-name="Layer 1"><defs><linearGradient id="a" x1="49.21" x2="117.21" y1="98.5" y2="98.5" gradientTransform="translate(-629.899 -628.627) scale(26.06113)" gradientUnits="userSpaceOnUse"><stop offset="0" stop-color="#00a9ce"/><stop offset=".41" stop-color="#00a7cb"/><stop offset=".66" stop-color="#009fc3"/><stop offset=".86" stop-color="#0091b5"/><stop offset="1" stop-color="#0083a6"/></linearGradient><linearGradient id="b" x1="59.4" x2="119.95" y1="50.61" y2="50.61" gradientTransform="translate(-629.899 -628.627) scale(26.06113)" gradientUnits="userSpaceOnUse"><stop offset="0" stop-color="#ffa300"/><stop offset=".35" stop-color="#fca200"/><stop offset=".56" stop-color="#f49d00"/><stop offset=".73" stop-color="#e69600"/><stop offset=".89" stop-color="#d28b00"/><stop offset="1" stop-color="#bd8000"/></linearGradient><linearGradient id="c" x1="24.17" x2="59.4" y1="68.4" y2="68.4" gradientTransform="translate(-629.899 -628.627) scale(26.06113)" gradientUnits="userSpaceOnUse"><stop offset="0" stop-color="#00b140"/><stop offset=".39" stop-color="#00ae40"/><stop offset=".62" stop-color="#01a63e"/><stop offset=".82" stop-color="#02983b"/><stop offset=".99" stop-color="#038437"/><stop offset="1" stop-color="#038237"/></linearGradient></defs><path fill="#165c7d" d="M1866.497 1398.93 1625.43 808.644c-23.715-54.468-41.437-93.82-78.183-93.82-36.746 0-53.947 41.698-75.838 93.56l-146.724 340.618-144.118-340.358c-21.891-52.122-39.092-93.56-75.838-93.82-36.746-.26-53.686 39.352-78.183 94.602L786.002 1399.45a113.627 113.627 0 0 0 111.803 163.403h106.068v134.475a87.826 87.826 0 0 0 87.566 87.566h30.491a87.826 87.826 0 0 0 87.566-87.566v-134.475h234.55v61.765a63.59 63.59 0 0 0 0 7.036v65.674a87.826 87.826 0 0 0 87.565 87.566h30.492a87.826 87.826 0 0 0 87.565-87.566v-134.475h106.07a113.627 113.627 0 0 0 111.54-163.924zm-642.147 98.77h-80.269v199.628a22.152 22.152 0 0 1-22.152 22.152h-30.23a22.152 22.152 0 0 1-22.153-22.152v-199.627H897.805a49.256 49.256 0 0 1-52.123-74.014l240.284-588.982c3.388-7.297 10.424-23.455 17.2-37.267 4.43 9.382 9.904 21.63 16.158 36.746l169.658 398.475-64.892 166.79a125.875 125.875 0 0 0 .26 98.251zm142.033-22.152a52.122 52.122 0 0 1-39.874 21.11 52.122 52.122 0 0 1-40.134-21.11 58.116 58.116 0 0 1 0-52.122l38.31-102.16 40.916 102.16a57.595 57.595 0 0 1 .782 52.122zm438.087 1.303a57.334 57.334 0 0 1-49.516 20.85h-171.482v199.627a22.152 22.152 0 0 1-22.152 22.152h-30.752a22.152 22.152 0 0 1-22.152-22.152V1497.7h-79.487a127.178 127.178 0 0 0 0-98.25l-66.977-166.792 171.222-398.735c6.255-14.855 11.727-26.061 16.158-36.485 6.776 13.551 13.552 29.71 16.679 36.746l240.544 588.981a57.334 57.334 0 0 1-2.085 53.686z"/><path fill="url(#a)" d="M1995.76 1848.745a912.14 912.14 0 0 1-671.074 291.884q-41.958 0-82.874-3.909a995.014 995.014 0 0 1-590.285-26.061 988.499 988.499 0 0 0 1772.157-602.012 1018.47 1018.47 0 0 0-8.6-130.306 992.669 992.669 0 0 1-419.324 470.404z"/><path fill="url(#b)" d="M1481.053 324.429a915.788 915.788 0 0 1 667.165 498.55 985.371 985.371 0 0 1 268.95 556.405A988.499 988.499 0 0 0 918.133 196.208a1043.9 1043.9 0 0 1 70.105-2.345 984.85 984.85 0 0 1 492.816 130.566z"/><path fill="#886b25" d="M2240.735 1226.144a910.576 910.576 0 0 1-244.975 622.6 992.669 992.669 0 0 0 420.366-469.1 985.371 985.371 0 0 0-268.95-556.666 909.794 909.794 0 0 1 93.559 403.166z"/><path fill="url(#c)" d="M448.25 1484.67a915.528 915.528 0 0 1 104.245-745.869 990.323 990.323 0 0 1 365.637-542.593A988.238 988.238 0 0 0 652.57 2111.441a984.59 984.59 0 0 1-204.58-603.055c0-7.297 0-15.376.261-23.715z"/><path fill="#007d8a" d="M1242.854 2136.72a915.267 915.267 0 0 1-794.604-651.528v26.061a984.59 984.59 0 0 0 204.58 602.012 995.014 995.014 0 0 0 590.285 26.061z"/><path fill="#007041" d="M551.452 738.801a914.485 914.485 0 0 1 773.234-427.403 940.807 940.807 0 0 1 154.282 13.031 984.85 984.85 0 0 0-491.774-130.306c-23.455 0-46.91 0-70.104 2.346A990.323 990.323 0 0 0 551.452 738.8z"/></svg>